<?xml version="1.0" encoding="UTF-8" standalone="no"?>
<svg
   width="1280"
   height="200"
   overflow="hidden"
   version="1.1"
   id="svg30"
   sodipodi:docname="sir.svg"
   inkscape:version="1.2.2 (732a01da63, 2022-12-09)"
   xmlns:inkscape="http://www.inkscape.org/namespaces/inkscape"
   xmlns:sodipodi="http://sodipodi.sourceforge.net/DTD/sodipodi-0.dtd"
   xmlns="http://www.w3.org/2000/svg"
   xmlns:svg="http://www.w3.org/2000/svg">
  <defs
     id="defs34" />
  <sodipodi:namedview
     id="namedview32"
     pagecolor="#ffffff"
     bordercolor="#000000"
     borderopacity="0.25"
     inkscape:showpageshadow="2"
     inkscape:pageopacity="0.0"
     inkscape:pagecheckerboard="0"
     inkscape:deskcolor="#d1d1d1"
     showgrid="false"
     inkscape:zoom="1.3453125"
     inkscape:cx="610.26713"
     inkscape:cy="359.76771"
     inkscape:window-width="3840"
     inkscape:window-height="2036"
     inkscape:window-x="-12"
     inkscape:window-y="-12"
     inkscape:window-maximized="1"
     inkscape:current-layer="svg30" />
  <rect
     style="fill:#ffffff;stroke-width:0.745032"
     id="rect259"
     width="1280"
     height="200"
     x="0"
     y="0" />
  <path
     d="m 206,78.713495 c 0,-8.008 6.492,-14.5 14.5,-14.5 h 108 c 8.008,0 14.5,6.492 14.5,14.5 v 57.999995 c 0,8.008 -6.492,14.5 -14.5,14.5 h -108 c -8.008,0 -14.5,-6.492 -14.5,-14.5 z"
     stroke="#042433"
     stroke-width="3"
     stroke-miterlimit="8"
     fill="none"
     fill-rule="evenodd"
     id="path4" />
  <text
     font-family="'Cambria Math', 'Cambria Math_MSFontService', sans-serif"
     font-weight="400"
     font-size="48px"
     id="text6"
     x="256.06702"
     y="123.71349">𝑆</text>
  <path
     d="m 572,78.713495 c 0,-8.008 6.492,-14.5 14.5,-14.5 h 108 c 8.008,0 14.5,6.492 14.5,14.5 v 57.999995 c 0,8.008 -6.492,14.5 -14.5,14.5 h -108 c -8.008,0 -14.5,-6.492 -14.5,-14.5 z"
     stroke="#042433"
     stroke-width="3"
     stroke-miterlimit="8"
     fill="none"
     fill-rule="evenodd"
     id="path8" />
  <text
     font-family="'Cambria Math', 'Cambria Math_MSFontService', sans-serif"
     font-weight="400"
     font-size="48px"
     id="text10"
     x="624.94702"
     y="123.71349">𝐼</text>
  <path
     d="m 937,78.713495 c 0,-8.008 6.492,-14.5 14.5,-14.5 h 108 c 8.01,0 14.5,6.492 14.5,14.5 v 57.999995 c 0,8.008 -6.49,14.5 -14.5,14.5 h -108 c -8.008,0 -14.5,-6.492 -14.5,-14.5 z"
     stroke="#042433"
     stroke-width="3"
     stroke-miterlimit="8"
     fill="none"
     fill-rule="evenodd"
     id="path12" />
  <text
     font-family="'Cambria Math', 'Cambria Math_MSFontService', sans-serif"
     font-weight="400"
     font-size="48px"
     id="text14"
     x="984.34601"
     y="123.71349">𝑅</text>
  <path
     d="m 342.5,105.71349 h 218.589 v 4 H 342.5 Z m 216.59,-4 12,6 -12,6 z"
     id="path16" />
  <path
     d="m 708.5,105.71349 h 218.589 v 4 H 708.5 Z m 216.589,-4 12,6 -12,6 z"
     id="path18" />
  <text
     font-family="'Cambria Math', 'Cambria Math_MSFontService', sans-serif"
     font-weight="400"
     font-size="48px"
     id="text20"
     x="809.20502"
     y="83.713486">𝛾</text>
  <text
     font-family="'Cambria Math', 'Cambria Math_MSFontService', sans-serif"
     font-weight="400"
     font-size="48px"
     id="text22"
     x="414.03299"
     y="83.713486">𝜆</text>
  <path
     d="m 481.303,47.286505 c 4.562,1.203 8.066,3.801 10.511,7.793 2.446,3.99199 3.668,8.809 3.668,14.449 0,5.657 -1.218,10.473 -3.656,14.449 -2.437,3.977 -5.945,6.567 -10.523,7.77 l -0.563,-1.805 c 3.609,-1.203 6.293,-3.578 8.051,-7.125 1.758,-3.547 2.637,-8.054 2.637,-13.523 0,-5.281 -0.875,-9.668 -2.625,-13.16 -1.75,-3.492 -4.461,-5.84 -8.133,-7.043 z m -23.219,0 0.633,1.805 c -3.656,1.203 -6.363,3.551 -8.121,7.043 -1.758,3.492 -2.637,7.879 -2.637,13.16 0,5.469 0.879,9.976 2.637,13.523 1.758,3.547 4.441,5.922 8.051,7.125 l -0.563,1.805 c -4.578,-1.203 -8.086,-3.793 -10.523,-7.77 -2.438,-3.976 -3.656,-8.792 -3.656,-14.44901 0,-5.63999 1.222,-10.457 3.668,-14.449 2.445,-3.99199 5.949,-6.59 10.511,-7.79299 z"
     fill-rule="evenodd"
     id="path24" />
  <text
     font-family="'Cambria Math', 'Cambria Math_MSFontService', sans-serif"
     font-weight="400"
     font-size="48px"
     id="text26"
     x="459.60599"
     y="83.713486">𝑡</text>
</svg>
